<?xml version="1.0" standalone="no"?>
<!DOCTYPE svg PUBLIC "-//W3C//DTD SVG 20010904//EN"
 "http://www.w3.org/TR/2001/REC-SVG-20010904/DTD/svg10.dtd">
<svg version="1.0" xmlns="http://www.w3.org/2000/svg"
 width="960.000000pt" height="960.000000pt" viewBox="0 0 960.000000 960.000000"
 preserveAspectRatio="xMidYMid meet">
<metadata>
Created by potrace 1.11, written by Peter Selinger 2001-2013
</metadata>
<g transform="translate(0.000000,960.000000) scale(0.100000,-0.100000)"
fill="#000000" stroke="none">
<path d="M2970 9051 c-238 -406 -337 -583 -376 -678 -30 -70 -58 -137 -63
-148 -6 -11 -24 -54 -41 -95 -40 -95 -44 -106 -68 -160 -11 -25 -75 -173 -141
-330 l-121 -285 6 -65 c3 -36 7 -78 8 -95 2 -16 7 -69 10 -118 4 -48 9 -97 11
-108 2 -11 7 -57 10 -102 3 -45 8 -93 10 -107 4 -24 11 -103 20 -215 2 -27 6
-75 10 -106 l6 -55 -82 -70 c-90 -75 -299 -282 -364 -358 -22 -26 -45 -53 -50
-59 -172 -194 -403 -569 -523 -849 -88 -204 -177 -476 -206 -628 -3 -14 -12
-61 -21 -104 -25 -129 -29 -152 -41 -266 -32 -299 -22 -756 21 -956 3 -12 7
-39 10 -60 37 -246 161 -630 287 -894 74 -153 223 -411 280 -485 5 -5 39 -51
76 -101 161 -218 351 -419 566 -598 109 -91 290 -226 301 -226 4 0 21 -11 38
-24 127 -94 446 -255 682 -344 165 -62 437 -138 570 -158 17 -3 55 -9 85 -15
30 -6 78 -12 105 -15 28 -3 61 -7 75 -10 126 -23 715 -23 782 1 7 2 36 7 63
10 61 6 93 11 220 35 343 65 688 190 1020 370 33 18 67 39 76 46 8 8 19 14 23
14 9 0 246 157 286 188 14 11 60 48 103 82 122 96 123 96 282 255 298 295 507
586 681 945 102 208 203 481 239 640 2 8 8 30 14 48 5 17 8 32 5 32 -3 0 0 8
5 18 5 9 12 34 15 55 3 21 12 71 20 110 40 205 56 381 56 647 1 165 -2 233
-16 340 -3 25 -7 68 -9 95 -4 44 -44 270 -60 335 -3 14 -8 36 -11 50 -11 54
-66 242 -81 277 -8 21 -15 38 -14 38 8 0 -99 265 -147 365 -176 367 -388 666
-688 970 l-84 85 76 80 c260 273 410 425 421 425 7 0 13 4 13 8 0 4 15 16 33
27 17 10 37 24 44 29 21 20 197 141 203 140 3 -1 97 -185 210 -410 l205 -409
162 -120 161 -121 58 1 c51 0 58 3 67 25 5 14 13 34 18 45 7 19 20 59 25 80 1
6 32 94 68 197 45 130 64 198 61 220 -2 18 -7 62 -11 98 -3 36 -8 79 -10 95
-3 17 -7 57 -10 90 -3 33 -7 70 -9 83 -2 13 -7 53 -10 90 -4 37 -8 77 -10 90
-2 13 -7 53 -11 89 -6 68 -13 86 -77 223 -19 41 -64 140 -100 220 -36 80 -85
188 -109 240 -24 52 -62 135 -83 183 l-40 88 -135 83 c-120 73 -153 88 -235
103 -11 2 -51 10 -90 18 -38 8 -83 16 -100 19 -32 6 -115 22 -155 31 -14 3
-63 12 -110 21 -47 9 -94 18 -105 20 -92 19 -81 23 -196 -88 -59 -57 -175
-168 -259 -248 -253 -240 -374 -361 -441 -440 -35 -41 -73 -84 -84 -96 -11
-11 -63 -67 -115 -124 -52 -57 -108 -117 -125 -135 -16 -17 -84 -88 -149 -158
-86 -91 -124 -126 -135 -121 -68 28 -248 92 -282 99 -9 2 -45 12 -80 23 -103
32 -350 83 -474 98 -27 3 -61 7 -75 9 -196 26 -613 25 -804 -2 -38 -5 -38 -5
-32 23 4 16 9 52 11 79 3 28 7 61 10 75 3 14 7 52 10 85 3 33 8 67 10 75 3 8
7 44 10 80 3 36 8 72 11 81 2 9 -3 47 -12 85 -9 38 -18 78 -20 89 -1 11 -14
72 -29 135 -14 63 -28 126 -31 140 -2 14 -8 43 -13 65 -13 52 -16 68 -46 205
-27 121 -60 267 -75 335 -19 78 -69 313 -75 345 -8 44 -35 120 -74 205 -17 39
-51 113 -74 165 l-42 95 -135 52 c-74 29 -138 52 -141 53 -3 0 -151 -247 -329
-549z m1675 -2415 c95 -6 139 -11 245 -26 74 -11 118 -19 140 -25 8 -2 31 -7
50 -10 19 -3 43 -8 52 -11 9 -3 25 -7 36 -9 10 -2 52 -13 92 -25 40 -12 81
-23 91 -25 10 -2 26 -8 36 -13 10 -6 23 -11 28 -12 30 -7 65 -23 65 -28 0 -4
-9 -18 -20 -32 -11 -14 -20 -30 -20 -35 0 -6 -7 -20 -15 -32 l-16 -22 -67 24
c-64 23 -230 69 -282 79 -14 3 -50 10 -80 16 -30 6 -70 13 -89 16 -19 2 -47 6
-62 9 -169 30 -545 35 -714 9 -16 -2 -43 -6 -60 -8 -16 -2 -54 -7 -83 -11
l-53 -8 7 64 c3 35 9 67 13 72 9 9 38 15 106 22 123 14 144 16 214 20 41 3 76
6 77 8 4 4 217 -1 309 -7z m5 -400 c47 -3 94 -7 105 -10 11 -2 45 -7 75 -11
61 -8 67 -9 128 -23 23 -5 42 -8 42 -6 0 3 8 0 18 -5 9 -5 33 -12 53 -15 35
-5 196 -53 212 -63 4 -3 4 -10 -1 -16 -5 -7 -33 -57 -62 -112 -29 -55 -111
-208 -182 -339 -72 -132 -139 -257 -150 -278 -11 -21 -23 -36 -28 -33 -4 2
-56 82 -115 178 l-107 173 -130 -26 c-103 -21 -140 -25 -177 -18 -25 5 -64 11
-86 15 -22 3 -73 11 -113 18 -40 7 -75 9 -77 4 -7 -10 -253 -209 -260 -209 -3
0 -3 12 -1 28 12 74 17 111 21 156 2 27 6 60 9 75 3 14 8 51 11 82 2 31 8 74
11 95 8 53 12 78 19 156 14 131 14 131 75 145 30 7 78 15 105 18 28 3 57 8 65
10 8 3 55 7 105 10 49 3 90 7 92 8 4 4 258 -1 343 -7z m-2140 -379 c0 -6 10
-21 22 -34 l22 -24 -94 -92 c-103 -101 -200 -208 -273 -302 -26 -33 -52 -66
-57 -72 -44 -53 -182 -280 -238 -392 -65 -129 -142 -303 -142 -321 0 -5 -5
-21 -12 -37 -6 -15 -12 -32 -14 -38 -1 -5 -14 -48 -28 -95 -15 -47 -28 -94
-30 -105 -2 -11 -9 -38 -14 -60 -12 -45 -17 -70 -37 -195 -3 -19 -8 -45 -10
-57 -26 -117 -26 -613 -1 -763 2 -14 7 -43 10 -65 13 -96 20 -127 52 -250 18
-71 36 -139 39 -149 2 -10 10 -35 17 -55 7 -20 13 -38 13 -41 3 -11 17 -47 31
-78 8 -18 14 -38 14 -44 0 -21 159 -337 217 -430 116 -188 255 -367 405 -518
78 -79 206 -195 242 -219 12 -8 23 -18 26 -21 20 -24 216 -159 323 -222 126
-75 383 -194 492 -228 22 -7 50 -18 61 -25 18 -11 93 -31 269 -71 81 -18 225
-42 295 -48 30 -3 66 -8 80 -10 209 -38 204 -38 275 -25 79 14 96 17 185 24
41 3 91 8 110 10 19 3 53 7 75 10 22 2 49 6 60 9 11 2 40 7 65 11 144 22 456
116 590 177 140 64 258 123 318 160 34 21 64 38 67 38 7 0 160 106 230 158
247 188 537 499 665 717 13 22 27 42 30 45 16 12 135 237 184 346 83 187 159
419 192 589 2 11 7 34 10 50 4 17 8 41 9 55 2 14 6 45 10 70 4 25 8 61 10 80
2 19 7 64 11 100 8 86 8 357 0 445 -18 186 -31 270 -58 390 -20 92 -72 278
-88 318 -4 12 -18 49 -30 82 -39 104 -62 156 -131 291 -137 270 -304 499 -520
716 l-98 98 47 45 c26 24 52 45 58 45 9 0 149 -136 221 -215 104 -115 284
-366 358 -500 151 -271 281 -608 321 -829 3 -16 7 -33 10 -37 2 -5 7 -32 10
-61 3 -29 8 -56 10 -60 3 -4 7 -26 10 -50 2 -24 7 -52 9 -63 26 -127 26 -651
-1 -770 -2 -11 -6 -36 -8 -55 -12 -93 -20 -134 -48 -250 -71 -298 -186 -581
-336 -833 -26 -42 -51 -85 -57 -95 -5 -10 -32 -49 -59 -87 -299 -423 -664
-738 -1122 -971 -90 -46 -164 -82 -164 -79 0 2 -24 -6 -53 -19 -82 -36 -310
-112 -396 -131 -121 -28 -219 -47 -251 -50 -14 -1 -43 -5 -65 -8 -80 -13 -112
-16 -215 -23 -178 -11 -386 -6 -530 12 -19 3 -53 7 -75 10 -36 4 -113 17 -171
28 -489 96 -968 328 -1364 663 -73 61 -281 272 -343 348 -31 39 -63 77 -70 85
-20 22 -152 210 -173 247 -11 17 -38 63 -61 101 -154 262 -278 594 -343 919
-5 26 -11 57 -14 68 -2 11 -7 45 -10 76 -4 31 -9 66 -11 78 -24 124 -24 496 0
696 2 17 6 55 10 85 3 30 8 61 11 69 2 8 7 30 10 50 9 61 53 241 81 331 15 47
27 87 28 90 1 3 7 18 13 33 7 16 12 32 12 37 0 18 86 209 147 329 141 273 314
510 541 740 139 141 142 144 162 126 11 -10 20 -23 20 -28z m3812 -423 c91
-94 204 -236 282 -354 57 -86 80 -126 158 -270 34 -62 116 -260 135 -323 8
-29 18 -56 21 -62 4 -5 7 -14 8 -20 1 -5 7 -30 14 -55 7 -25 14 -52 16 -60 2
-8 8 -33 14 -55 5 -22 12 -56 15 -75 3 -19 10 -55 15 -80 22 -108 34 -260 34
-440 0 -246 -18 -390 -78 -640 -38 -154 -125 -391 -189 -510 -78 -146 -104
-191 -156 -270 -154 -236 -376 -476 -579 -628 -42 -31 -79 -60 -82 -63 -6 -6
-156 -104 -210 -136 -75 -44 -134 -74 -120 -60 15 15 47 37 350 242 96 65 178
123 182 129 4 6 40 92 79 191 40 99 80 199 90 222 11 23 19 47 19 54 0 6 -14
68 -31 138 -17 69 -32 133 -34 141 -5 25 -25 103 -35 140 -9 32 -118 476 -125
510 -1 8 -8 35 -15 60 -7 25 -13 52 -15 60 -2 8 -8 35 -14 60 -13 52 -19 77
-26 105 -2 11 -9 40 -16 65 -6 25 -13 53 -15 63 -2 9 -6 26 -9 37 -3 11 -7 28
-9 38 -3 9 -36 144 -75 300 -39 155 -71 289 -71 298 0 9 9 27 20 41 21 27 27
117 9 139 -24 30 -57 108 -53 127 3 20 -19 97 -51 172 -19 44 -31 92 -34 142
-1 6 -21 35 -46 65 -47 54 -96 77 -168 78 l-27 0 19 38 c20 39 44 67 102 117
122 108 215 190 219 195 3 3 25 23 50 45 166 146 208 184 240 212 l35 32 44
-42 c24 -23 75 -74 113 -113z m-3587 88 c17 -26 87 -130 155 -232 102 -153
124 -191 123 -219 -1 -20 -6 -37 -11 -39 -6 -2 -34 -20 -64 -41 -48 -34 -53
-40 -51 -72 11 -148 0 -218 -52 -354 -51 -132 -25 -248 62 -286 41 -18 45 -22
39 -47 -3 -15 -9 -38 -12 -52 -3 -14 -23 -97 -45 -185 -22 -88 -43 -171 -45
-185 -3 -14 -12 -50 -20 -80 -9 -30 -18 -66 -21 -80 -2 -14 -9 -43 -15 -65 -5
-22 -11 -47 -13 -55 -2 -8 -11 -44 -20 -80 -9 -36 -18 -72 -20 -80 -2 -8 -38
-152 -80 -320 -87 -348 -80 -321 -94 -380 -5 -25 -35 -146 -65 -270 -57 -232
-57 -235 -37 -285 7 -16 28 -70 47 -120 19 -49 39 -98 44 -108 20 -34 -8 -16
-46 30 -21 27 -43 53 -49 58 -42 38 -206 273 -269 385 -83 148 -194 403 -220
505 -2 6 -5 17 -9 25 -19 54 -74 299 -82 370 -3 26 -8 57 -10 70 -20 104 -21
521 -1 616 2 12 7 45 11 75 18 148 102 463 157 589 11 25 24 54 28 65 73 184
248 467 399 645 75 89 234 250 246 250 6 0 24 -22 40 -48z"/>
</g>
</svg>
